<?xml version="1.0" encoding="utf-8"?>
<!DOCTYPE svg PUBLIC "-//W3C//DTD SVG 1.1//EN" "http://www.w3.org/Graphics/SVG/1.1/DTD/svg11.dtd">
<svg version="1.1" id="Layer_1" xmlns="http://www.w3.org/2000/svg" xmlns:xlink="http://www.w3.org/1999/xlink" x="0px" y="0px"
	 width="612px" height="188px" viewBox="0 0 612 188" enable-background="new 0 0 612 188" xml:space="preserve">
<path fill="#00BA68" d="M160.2,54.55c-6.7,0.1-11.4,5.2-11.4,12.8l0.4,41c0.1,9.5-7.1,15-14.7,15c-7.7,0.101-14.8-5.199-15-14.699
	l-0.4-41c-0.1-7.7-4.9-12.7-11.7-12.7c-6.7,0.1-11.4,5.2-11.4,12.8l0.4,41.5c0.2,20.4,13.9,33.5,38.2,33.2
	c24.3-0.2,37.7-13.4,37.6-33.8l-0.4-41.5C171.8,59.55,167,54.45,160.2,54.55z"/>
<path fill="#00BA68" d="M72.4,117.25c-2.7,0-11.3,4.9-17.1,4.9c-12.5,0.1-19.4-11.7-19.6-23c-0.1-11.7,6-23.5,19.1-23.601
	c7.3-0.1,12.5,4.4,18.3,4.4c5.4,0,8.7-6.4,8.7-11.1c-0.1-11.2-19.1-14.4-28.3-14.3c-24.2,0.3-41,21.6-40.7,44.9
	c0.2,23.899,16.8,44.1,41.6,43.8c8.2-0.1,28-4.2,27.9-16C82.3,121.75,77.8,117.15,72.4,117.25z"/>
<path fill="#00BA68" d="M442.4,15.05c-6.7,0.1-11.4,5.2-11.4,12.8l0.8,98.4c0.101,7.7,4.9,12.7,11.7,12.7
	c6.7-0.101,11.4-5.2,11.4-12.8l-0.801-98.4C453.9,20.05,449.1,15.05,442.4,15.05z"/>
<path fill="#00BA68" d="M378.4,51.65c-8.601,0.1-17.601,3.7-21.801,10.7c-1.5-6-5.199-9.5-11.5-9.4
	c-6.699,0.1-11.399,5.2-11.399,12.8l0.8,95.2c0.1,7.7,4.9,12.7,11.5,12.7c6.7-0.101,11.4-5.2,11.4-12.801l-0.2-28
	c6.1,5.2,13.899,7.9,21.1,7.801c23.101-0.2,37.7-21.9,37.5-43.601C415.6,74.45,403.2,51.45,378.4,51.65z M375.1,119.35
	c-12.6,0.101-18.1-12.6-18.3-23.8c-0.1-11.2,5.5-22.7,17.8-22.9c12-0.1,18,12.5,18.101,23.3C392.9,106.75,387.1,119.25,375.1,119.35
	z"/>
<path fill="#00BA68" d="M282.6,52.45c-7.8,0.1-17.8,4.5-24.2,11.9c-6.1-7.7-14.3-11.5-23.9-11.4c-8.5,0.1-15.8,3.7-21.3,9.8
	c-0.8-5.4-4.7-8.6-10.6-8.5c-6.7,0.1-11.4,5.2-11.4,12.8l0.6,61.3c0.1,7.7,4.9,12.7,11.5,12.7c6.7-0.1,11.4-5.2,11.4-12.8l-0.4-40.1
	c0-9.3,4-15.9,13.4-16c8.2-0.1,13.4,6.5,13.5,15.7l0.4,40.1c0.1,7.7,4.9,12.7,11.7,12.7c6.7-0.101,11.4-5.2,11.4-12.801l-0.5-40.2
	c-0.1-9.3,4.9-15.9,13.4-15.9c8.2-0.1,13.4,6.5,13.5,15.7l0.4,40.1c0.1,7.7,4.9,12.7,11.7,12.7c6.7-0.1,11.399-5.2,11.399-12.8
	l-0.399-44.1C314.2,63.05,301.4,52.35,282.6,52.45z"/>
<path fill="#00BA68" d="M592.6,65.15c-5.699-2.1-12,0.7-14.1,6.4c-4,10.7-10.1,19.3-17,25.9c17.9-25.2,18.5-56.7,18.5-58.2
	c0.1-6-4.8-11-10.8-11.1c-6.101-0.1-11,4.8-11.101,10.8c0,0.2-0.199,15.6-6.699,31.5c3.3-23.3-1.801-44.4-2-45.4
	c-1.4-5.9-7.4-9.4-13.2-8c-5.9,1.4-9.4,7.3-8,13.2c0,0.1,2.6,10.8,2.5,24.4c-5.4-2.8-11.8-4.5-19.101-4.4
	c-15.199,0.1-27.6,7.5-34.8,20.7c-2.8,5.3-0.899,12,4.5,14.8c5.3,2.8,12,0.9,14.8-4.4c3.4-6.2,8.5-9.2,15.7-9.3
	c15.101-0.1,19.2,14.3,19.3,22.7c0.101,8.4-3.899,22.5-19,22.6c-12.1,0.101-18.5-11.699-19.199-20.1c-0.5-6-5.801-10.5-11.801-10
	s-10.5,5.8-10,11.8c1.5,17.9,15.2,36.8,36,39.8c2.9,0.5,6.101,0.7,9.4,0.7c28.6-0.2,67.1-19.899,82.5-60.5
	C601.1,73.65,598.2,67.35,592.6,65.15z"/>
</svg>
