<?xml version="1.0" encoding="UTF-8"?>
<svg width="398px" height="59px" viewBox="0 0 398 59" version="1.1" xmlns="http://www.w3.org/2000/svg" xmlns:xlink="http://www.w3.org/1999/xlink">
    <!-- Generator: Sketch 45.1 (43504) - http://www.bohemiancoding.com/sketch -->
    <title>logo-cumplo-b-df67922a93fa73b0405f2552b5341e61</title>
    <desc>Created with Sketch.</desc>
    <defs></defs>
    <g id="Welcome" stroke="none" stroke-width="1" fill="none" fill-rule="evenodd">
        <g id="header-ayuda-footer-" transform="translate(-26.000000, -4665.000000)" fill-rule="nonzero" fill="#00BA68">
            <g id="Footer" transform="translate(-2.000000, 4185.000000)">
                <g id="logo-cumplo-b-df67922a93fa73b0405f2552b5341e61" transform="translate(28.000000, 479.903328)">
                    <path d="M53.3798278,15.2328607 C50.9631218,15.2759655 49.2671879,17.1294744 49.2671879,19.9312901 L49.3943829,34.9317805 C49.4367813,38.423274 46.8504819,40.4060974 44.0945892,40.4060974 C41.3386965,40.4492023 38.7523972,38.5094837 38.7099988,35.0179903 L38.5828038,20.0174999 C38.5404054,17.2156841 36.8020731,15.3621753 34.3853672,15.3621753 C31.9686613,15.4052801 30.2727273,17.258789 30.2727273,20.0606047 L30.3999223,35.2335145 C30.484719,42.6906549 35.4029276,47.4752941 44.1369876,47.3890844 C52.8710476,47.3028746 57.7044594,42.4751306 57.6620611,35.0179903 L57.534866,19.8450804 C57.534866,17.0432647 55.7965337,15.1897558 53.3798278,15.2328607 Z" id="Shape"></path>
                    <path d="M22.253716,37.95187 C21.2422251,37.95187 18.0318412,39.7454446 15.8769259,39.7454446 C11.2152724,39.7881487 8.62057851,35.5177331 8.57660064,31.4181341 C8.53262278,27.1477185 10.8194717,22.8773028 15.7010144,22.8345987 C18.4276419,22.7918945 20.3626679,24.4146525 22.5175832,24.4146525 C24.5405649,24.4146525 25.771945,22.108628 25.771945,20.4004618 C25.7279672,16.3435669 18.6475312,15.1905547 15.2172579,15.2332589 C6.15781819,15.3186672 -0.0870383386,23.0481195 0.000917387147,31.5035424 C0.0888731129,40.1724861 6.28975178,47.4748969 15.525103,47.3894886 C18.6035534,47.3467844 25.9918343,45.8521389 25.9478565,41.5817233 C25.9478565,39.574628 24.2766977,37.9091659 22.253716,37.95187 Z" id="Shape"></path>
                    <path d="M156.938136,0.614803766 C154.5095,0.65787762 152.805195,2.51005334 152.805195,5.30985385 L153.103448,41.2765219 C153.146056,44.0763225 154.892969,45.9284982 157.321605,45.9284982 C159.75024,45.8854243 161.454545,44.0332486 161.454545,41.2334481 L161.156292,5.26678 C161.113684,2.46697949 159.366771,0.614803766 156.938136,0.614803766 Z" id="Shape"></path>
                    <path d="M133.270169,13.7710563 C130.099676,13.8147948 126.798889,15.1269482 125.235359,17.751255 C124.67075,15.5205942 123.324377,14.2084408 120.97908,14.2521792 C118.50349,14.2959177 116.766234,16.1766709 116.766234,19.0196699 L117.070254,54.3603347 C117.113685,57.2033337 118.894373,59.0840869 121.326532,59.0840869 C123.802122,59.0403484 125.539378,57.1595952 125.539378,54.3165962 L125.452516,43.906846 C127.710949,45.8313376 130.577422,46.8373219 133.226738,46.7935834 C141.739294,46.7061065 147.124789,38.6582324 147.037926,30.6103582 C146.994494,22.2563149 142.390765,13.6835794 133.270169,13.7710563 Z M132.05409,38.9206631 C127.406929,38.9644015 125.365653,34.2406493 125.322221,30.0854969 C125.27879,25.9303444 127.363498,21.6439767 131.880364,21.6002382 C136.310368,21.5564998 138.52537,26.2365136 138.568801,30.2604506 C138.612232,34.2406493 136.484093,38.8769246 132.05409,38.9206631 Z" id="Shape"></path>
                    <path d="M97.9284043,13.7707412 C95.1167469,13.8135041 91.4956731,15.3957342 89.1952261,18.0898016 C86.9799809,15.3102083 84.040521,13.8990301 80.5472497,13.9417931 C77.4799871,13.984556 74.8387332,15.2674453 72.8364924,17.49112 C72.5382863,15.5240231 71.1324576,14.3694228 69.0024142,14.4121858 C66.5741646,14.4549488 64.8701299,16.2937567 64.8701299,19.07335 L65.0831342,41.3100969 C65.1257351,44.0896903 66.8723707,45.9284982 69.2580194,45.9284982 C71.6862689,45.8857352 73.3903037,44.0469273 73.3903037,41.2673339 L73.2625011,26.7279225 C73.2625011,23.3496475 74.7109306,20.9549209 78.1190002,20.9121579 C81.101061,20.869395 82.9754992,23.2641216 83.0181001,26.5996336 L83.1459027,41.139045 C83.1885036,43.9186384 84.9351392,45.7574463 87.3633888,45.7574463 C89.7916383,45.7146833 91.4956731,43.8758754 91.4956731,41.096282 L91.3252696,26.5141076 C91.2826687,23.1358326 93.1145061,20.741106 96.1817687,20.741106 C99.1638295,20.6983431 101.038268,23.0930697 101.080869,26.4285817 L101.208671,40.9679931 C101.251272,43.7475865 102.997908,45.5863944 105.426157,45.5863944 C107.854407,45.5436314 109.558442,43.7048235 109.558442,40.9252301 L109.430639,24.9318776 C109.345437,17.6194089 104.701942,13.7279782 97.9284043,13.7707412 Z" id="Shape"></path>
                    <path d="M212.158211,18.4443242 C210.066656,17.6627837 207.713658,18.7048377 206.929325,20.7889457 C205.447807,24.7400671 203.181957,27.909648 200.654662,30.3411073 C207.277917,21.0494592 207.495788,9.45660857 207.495788,8.89216266 C207.539362,6.67779794 205.709252,4.85420345 203.486975,4.81078454 C201.221125,4.76736562 199.434589,6.5909601 199.391015,8.80532483 C199.391015,8.89216266 199.303867,14.5366218 196.907294,20.3981755 C198.127368,11.80123 196.253684,4.02924405 196.166536,3.68189272 C195.643647,1.51094691 193.421371,0.208379421 191.286242,0.729406415 C189.10754,1.25043341 187.800319,3.42137922 188.323207,5.59232503 C188.323207,5.63574395 189.281836,9.58686532 189.238262,14.5800407 C187.233856,13.5379867 184.880858,12.9301219 182.179267,12.9735408 C176.558215,13.0169597 171.98294,15.7523514 169.324923,20.61527 C168.279146,22.5691213 168.976331,25.0439995 170.980737,26.0860535 C172.941569,27.1281075 175.42529,26.4334048 176.471067,24.4795536 C177.734714,22.178351 179.608398,21.0928781 182.266415,21.0494592 C187.843893,21.0060403 189.368984,26.3031481 189.412558,29.42931 C189.456132,32.5120531 187.974615,37.722323 182.397137,37.7657419 C177.90901,37.8091609 175.556012,33.4672692 175.294567,30.3411073 C175.120271,28.1267425 173.159439,26.4768237 170.937163,26.6504994 C168.714886,26.8241751 167.059073,28.7780263 167.233369,30.992391 C167.799831,37.5920663 172.854421,44.5390929 180.567027,45.6679847 C181.656378,45.8416603 182.832877,45.9284982 184.052951,45.9284982 C194.641444,45.8416603 208.890157,38.5907013 214.554783,23.6111753 C215.295542,21.5704862 214.249765,19.2258647 212.158211,18.4443242 Z" id="Shape"></path>
                    <path d="M251.594347,24.002517 L242.860199,24.002517 C242.521008,24.002517 242.181818,24.3105074 242.181818,24.706495 C242.181818,25.1024826 242.47861,25.3664744 242.860199,25.3664744 L246.506494,25.3664744 L246.506494,36.4101291 C246.506494,36.8061167 246.845684,37.1581057 247.227273,37.1581057 C247.608862,37.1581057 247.948052,36.8061167 247.948052,36.4101291 L247.948052,25.3664744 L251.594347,25.3664744 C251.933537,25.3664744 252.272727,25.058484 252.272727,24.706495 C252.272727,24.354506 251.975936,24.002517 251.594347,24.002517 Z" id="Shape"></path>
                    <path d="M264.049611,24.6559403 C263.87004,24.2638863 263.55579,24.002517 263.106862,24.002517 L263.017076,24.002517 C262.523255,24.002517 262.253898,24.2638863 262.074327,24.6559403 L256.687188,36.1126285 C256.597403,36.2433131 256.597403,36.3739978 256.597403,36.5046824 C256.597403,36.8531749 256.911652,37.1581057 257.270795,37.1581057 C257.629938,37.1581057 257.854402,36.9838595 257.98908,36.6789286 L259.380758,33.6731816 L266.698288,33.6731816 L268.089965,36.6353671 C268.224644,36.940298 268.449108,37.1581057 268.853143,37.1581057 C269.257179,37.1581057 269.571429,36.8531749 269.571429,36.4611209 C269.571429,36.3304362 269.526536,36.1997516 269.481643,36.1126285 L264.049611,24.6559403 Z M259.964364,32.366335 L263.017076,25.7449791 L266.069788,32.366335 L259.964364,32.366335 Z" id="Shape"></path>
                    <path d="M279.517524,29.8924374 C276.522505,29.2905478 275.78527,28.6026738 275.78527,27.3988945 L275.78527,27.3559024 C275.78527,26.1951151 276.9372,25.2922806 278.688134,25.2922806 C279.978296,25.2922806 281.084149,25.6362176 282.236079,26.4100757 C282.374311,26.49606 282.512542,26.5390521 282.696851,26.5390521 C283.111546,26.5390521 283.434086,26.2381072 283.434086,25.8511782 C283.434086,25.5932255 283.249778,25.3782649 283.111546,25.2492885 C281.867461,24.4324382 280.531222,24.002517 278.780288,24.002517 C276.199964,24.002517 274.310799,25.4642491 274.310799,27.4848787 L274.310799,27.5278708 C274.310799,29.6344847 275.739192,30.5803114 278.91852,31.2251932 C281.775307,31.7840907 282.466465,32.4719646 282.466465,33.6327519 L282.466465,33.675744 C282.466465,34.9225155 281.268458,35.82535 279.425369,35.82535 C277.674435,35.82535 276.384273,35.3524367 275.094111,34.3206258 C275.001957,34.2346416 274.817648,34.1486573 274.633339,34.1486573 C274.218644,34.1486573 273.896104,34.4496022 273.896104,34.8795234 C273.896104,35.1374761 274.034336,35.3094446 274.172567,35.4384209 C275.693115,36.556216 277.351895,37.1581057 279.333215,37.1581057 C282.05177,37.1581057 283.987013,35.7393658 283.987013,33.5467676 L283.987013,33.5037755 C283.940936,31.5691301 282.558619,30.5373192 279.517524,29.8924374 Z" id="Shape"></path>
                    <path d="M297.205455,24.6559403 C297.025884,24.2638863 296.711634,24.002517 296.262706,24.002517 L296.172921,24.002517 C295.679099,24.002517 295.409743,24.2638863 295.230171,24.6559403 L289.843032,36.1126285 C289.753247,36.2433131 289.753247,36.3739978 289.753247,36.5046824 C289.753247,36.8531749 290.067497,37.1581057 290.426639,37.1581057 C290.785782,37.1581057 291.010246,36.9838595 291.144924,36.6789286 L292.536602,33.6731816 L299.854132,33.6731816 L301.24581,36.6353671 C301.380488,36.940298 301.604952,37.1581057 302.008988,37.1581057 C302.413023,37.1581057 302.727273,36.8531749 302.727273,36.4611209 C302.727273,36.3304362 302.68238,36.1997516 302.637487,36.1126285 L297.205455,24.6559403 Z M293.120209,32.366335 L296.172921,25.7449791 L299.225632,32.366335 L293.120209,32.366335 Z" id="Shape"></path>
                    <path d="M322.268863,24.002517 C321.910632,24.002517 321.592204,24.3498593 321.592204,24.7406193 L321.592204,32.7294917 C321.592204,34.7701276 320.597119,35.8121544 319.283606,35.8121544 C318.169111,35.8121544 317.492452,35.3345588 316.855598,34.3793675 C316.736188,34.2491142 316.616777,34.1188608 316.377957,34.1188608 C316.019726,34.1188608 315.701299,34.4662031 315.701299,34.8569631 C315.701299,35.0740521 315.780906,35.2477232 315.900316,35.3345588 C316.616777,36.4200034 317.69147,37.1581057 319.243803,37.1581057 C320.278692,37.1581057 321.19417,36.8107634 321.831025,36.0726611 C322.507683,35.3345588 322.905717,34.2056964 322.905717,32.6860739 L322.905717,24.7406193 C322.945521,24.3064415 322.627093,24.002517 322.268863,24.002517 Z" id="Shape"></path>
                    <path d="M340.995689,24.002517 C340.628004,24.002517 340.301173,24.3487167 340.301173,24.7381914 L340.301173,31.5756355 C340.301173,34.3885081 338.871287,35.8165819 336.665177,35.8165819 C334.377359,35.8165819 332.947474,34.2586832 332.947474,31.4890856 L332.947474,24.7381914 C332.947474,24.3487167 332.620643,24.002517 332.252958,24.002517 C331.885273,24.002517 331.558442,24.3487167 331.558442,24.7381914 L331.558442,31.5756355 C331.558442,35.2107324 333.601136,37.1581057 336.583469,37.1581057 C339.606657,37.1581057 341.649351,35.2107324 341.649351,31.4890856 L341.649351,24.7814663 C341.649351,24.3054418 341.363373,24.002517 340.995689,24.002517 Z" id="Shape"></path>
                    <path d="M354.478563,29.8924374 C351.483544,29.2905478 350.746308,28.6026738 350.746308,27.3988945 L350.746308,27.3559024 C350.746308,26.1951151 351.898239,25.2922806 353.649173,25.2922806 C354.939335,25.2922806 356.045188,25.6362176 357.197118,26.4100757 C357.33535,26.49606 357.473581,26.5390521 357.65789,26.5390521 C358.072585,26.5390521 358.395125,26.2381072 358.395125,25.8511782 C358.395125,25.5932255 358.210817,25.3782649 358.072585,25.2492885 C356.8285,24.4324382 355.492261,24.002517 353.741327,24.002517 C351.161003,24.002517 349.271838,25.4642491 349.271838,27.4848787 L349.271838,27.5278708 C349.271838,29.6344847 350.700231,30.5803114 353.879559,31.2251932 C356.736346,31.7840907 357.427504,32.4719646 357.427504,33.6327519 L357.427504,33.675744 C357.427504,34.9225155 356.229497,35.82535 354.386408,35.82535 C352.635474,35.82535 351.345312,35.3524367 350.05515,34.3206258 C349.962996,34.2346416 349.778687,34.1486573 349.594378,34.1486573 C349.179683,34.1486573 348.857143,34.4496022 348.857143,34.8795234 C348.857143,35.1374761 348.995374,35.3094446 349.133606,35.4384209 C350.654154,36.556216 352.312934,37.1581057 354.294254,37.1581057 C357.012809,37.1581057 358.948052,35.7393658 358.948052,33.5467676 L358.948052,33.5037755 C358.901975,31.5691301 357.519658,30.5373192 354.478563,29.8924374 Z" id="Shape"></path>
                    <path d="M372.685256,24.002517 L363.951108,24.002517 C363.611917,24.002517 363.272727,24.3105074 363.272727,24.706495 C363.272727,25.1024826 363.569519,25.3664744 363.951108,25.3664744 L367.597403,25.3664744 L367.597403,36.4101291 C367.597403,36.8061167 367.936593,37.1581057 368.318182,37.1581057 C368.699771,37.1581057 369.038961,36.8061167 369.038961,36.4101291 L369.038961,25.3664744 L372.685256,25.3664744 C373.024446,25.3664744 373.363636,25.058484 373.363636,24.706495 C373.363636,24.354506 373.024446,24.002517 372.685256,24.002517 Z" id="Shape"></path>
                    <path d="M385.14052,24.6559403 C384.960949,24.2638863 384.646699,24.002517 384.197771,24.002517 L384.107985,24.002517 C383.614164,24.002517 383.344807,24.2638863 383.165236,24.6559403 L377.778097,36.1126285 C377.688312,36.2433131 377.688312,36.3739978 377.688312,36.5046824 C377.688312,36.8531749 378.002561,37.1581057 378.361704,37.1581057 C378.720847,37.1581057 378.945311,36.9838595 379.079989,36.6789286 L380.471667,33.6731816 L387.789197,33.6731816 L389.180874,36.6353671 C389.315553,36.940298 389.540017,37.1581057 389.944052,37.1581057 C390.348088,37.1581057 390.662338,36.8531749 390.662338,36.4611209 C390.662338,36.3304362 390.617445,36.1997516 390.572552,36.1126285 L385.14052,24.6559403 Z M381.055273,32.366335 L384.107985,25.7449791 L387.160697,32.366335 L381.055273,32.366335 Z" id="Shape"></path>
                    <path d="M397.145847,34.2346416 C396.715482,34.2346416 396.428571,34.4782636 396.428571,34.8436966 L396.428571,35.0873186 C396.428571,35.4222989 396.715482,35.6963736 397.145847,35.6963736 C397.540349,35.6963736 397.863123,35.4222989 397.863123,35.0873186 L397.863123,34.8436966 C397.863123,34.4782636 397.540349,34.2346416 397.145847,34.2346416 Z" id="Shape"></path>
                    <path d="M228.340055,13.7703925 C228.01728,13.7703925 227.766234,14.0705348 227.766234,14.4564321 L227.766234,45.2424586 C227.766234,45.6283559 228.01728,45.9284982 228.340055,45.9284982 C228.662829,45.9284982 228.913875,45.6283559 228.913875,45.2424586 L228.913875,14.4135546 C228.913875,14.0705348 228.662829,13.7703925 228.340055,13.7703925 Z" id="Shape"></path>
                </g>
            </g>
        </g>
    </g>
</svg>